<svg width="204" height="86" viewBox="0 0 204 86" fill="none" xmlns="http://www.w3.org/2000/svg">
<g clip-path="url(#clip0_0_3)">
<path d="M188.312 30.6867L203.286 0.799805H0.504517V62.1095H197.261L188.312 30.6867Z" fill="#0860FB"/>
<path d="M107.831 21.8698L105.807 41.1839H118.751L120.141 27.9171C120.26 26.7699 121.095 26.3968 121.554 26.3968C122.014 26.3968 132.298 26.403 132.688 26.403L133.189 21.8713H107.829L107.831 21.8698Z" fill="white"/>
<path d="M71.3207 21.8698H25.6032L23.5797 41.1808L36.5229 41.1839L38.1175 25.9494H40.943V25.9524C41.5592 25.9896 42.129 26.6832 42.0376 27.5394L40.5962 41.1839H53.5208V41.1808L55.1155 25.9494H57.941C58.5773 25.9494 59.1827 26.66 59.0898 27.5394L57.6871 41.1839H70.7107L72.5454 23.6812C72.6646 22.5015 71.9168 21.8713 71.3192 21.8713L71.3207 21.8698Z" fill="white"/>
<path d="M163.347 21.8312H150.776L147.421 28.4947L148.535 17.6309H135.591L133.123 41.184H146.103L146.976 32.5867C146.976 32.5867 147.577 34.6644 147.579 34.6706L149.461 41.184H161.845L158.885 30.687L163.349 21.8327L163.347 21.8312Z" fill="white"/>
<path d="M104.454 21.8699C104.454 21.8699 77.4745 21.8977 76.8769 21.8977C75.1274 21.8977 74.6537 23.4893 74.6026 24.0606L74.3781 26.2777H92.4629L92.2229 28.5737H75.3597C74.8998 28.5737 74.0282 29.0382 73.9074 30.1854L72.7184 41.184H103.845L105.68 23.6813C105.799 22.5015 105.051 21.8714 104.454 21.8714V21.8699ZM91.6129 34.1721C91.4906 35.4308 90.1947 36.5223 89.1017 36.5223H81.4813C81.4813 36.5223 81.8297 33.2571 81.8452 33.1889V33.1812H81.8467C81.9969 32.2507 82.8267 31.7413 83.4429 31.7212H91.8668C91.8668 31.7212 91.729 32.9939 91.6145 34.1721H91.6129Z" fill="white"/>
<path d="M165.468 39.2655C165.737 39.1494 165.807 38.959 165.807 38.7778C165.807 38.3412 165.403 38.2205 165.087 38.2205H164.242V40.2223H164.646V39.4141H164.957C165.333 39.4141 165.361 39.5953 165.375 39.7486C165.389 39.8925 165.403 40.1573 165.44 40.2223H165.83C165.793 40.1248 165.793 40.0876 165.77 39.7253C165.751 39.4467 165.649 39.3305 165.468 39.2655ZM164.985 39.1447H164.646V38.5084H165.022C165.138 38.5084 165.408 38.5084 165.408 38.8057C165.408 39.1447 165.101 39.1401 164.985 39.1447Z" fill="white"/>
<path d="M165.017 37.4543H165.013C163.995 37.4543 163.229 38.2718 163.229 39.2333C163.229 40.1947 164.023 41.0122 165.008 41.0122C165.993 41.0122 166.778 40.2226 166.778 39.2333C166.778 38.2439 166.007 37.4543 165.017 37.4543ZM165.008 40.7149C164.205 40.7149 163.55 40.0554 163.55 39.2333C163.55 38.4111 164.177 37.7516 165.003 37.7516H165.008C165.839 37.7516 166.457 38.4344 166.457 39.2333C166.457 40.0321 165.807 40.7149 165.008 40.7149Z" fill="white"/>
<path d="M23.5792 76.0048H25.1755V78.2079C25.7437 77.6026 26.5023 77.6026 26.7237 77.6026C27.84 77.6026 29.3495 78.4015 29.3495 80.4219C29.3495 82.4423 28.0118 83.3078 26.6556 83.3078C25.9047 83.3078 25.3287 82.9424 25.1073 82.5569V83.1251H23.5777V76.0064L23.5792 76.0048ZM27.7548 80.4389C27.7548 79.7562 27.2346 79.092 26.4465 79.092C25.5997 79.092 25.1197 79.7747 25.1197 80.4389C25.1197 81.179 25.6198 81.8153 26.4187 81.8153C27.2176 81.8153 27.7563 81.1511 27.7563 80.4498V80.4405L27.7548 80.4389Z" fill="#0860FB"/>
<path d="M35.1909 83.1234H33.7V82.5552C33.5173 82.8153 33.1798 83.3061 32.2183 83.3061C30.41 83.3061 30.2273 81.8446 30.2273 81.1231V77.7851H31.8235V80.7005C31.8235 81.2872 31.9489 81.8074 32.6704 81.8074C33.4693 81.8074 33.5932 81.2392 33.5932 80.6912V77.7867H35.1894V83.125L35.1909 83.1234Z" fill="#0860FB"/>
<path d="M36.3462 76.0048H37.9425V77.2171H36.3462V76.0048ZM36.3462 77.7853H37.9425V83.1235H36.3462V77.7853Z" fill="#0860FB"/>
<path d="M39.0971 76.0047H40.6933V83.1235H39.0971V76.0047Z" fill="#0860FB"/>
<path d="M47.4095 83.1235H45.8891V82.546C45.7359 82.7674 45.3504 83.2969 44.2728 83.2969C42.6564 83.2969 41.599 82.0459 41.599 80.4404C41.599 78.6321 42.8887 77.6025 44.2449 77.6025C45.1878 77.6025 45.6399 78.0639 45.8133 78.2373V76.0047H47.4095V83.1235ZM43.1952 80.4388C43.1952 81.2563 43.782 81.8044 44.5329 81.8044C44.9184 81.8044 45.2729 81.6511 45.5238 81.4003C45.7746 81.1495 45.9186 80.8042 45.8984 80.4094C45.8984 80.0239 45.7452 79.6972 45.5036 79.4666C45.2637 79.2266 44.9261 79.0919 44.5515 79.0919C43.6287 79.0919 43.1952 79.8134 43.1952 80.4296V80.4388Z" fill="#0860FB"/>
<path d="M48.564 76.0048H50.1602V77.2171H48.564V76.0048ZM48.564 77.7853H50.1602V83.1235H48.564V77.7853Z" fill="#0860FB"/>
<path d="M51.316 77.7852H52.8069V78.3534C52.9896 78.0933 53.3271 77.6025 54.2793 77.6025C56.0783 77.6025 56.261 79.064 56.261 79.7855V83.1234H54.6648V80.2081C54.6648 79.6213 54.5394 79.1011 53.8272 79.1011C53.0376 79.1011 52.9137 79.6693 52.9137 80.2174V83.1234H51.3175V77.7852H51.316Z" fill="#0860FB"/>
<path d="M62.9277 82.4794C62.9277 83.2783 62.8704 83.7877 62.6103 84.2398C62.1969 84.9132 61.2246 85.5 59.9071 85.5C58.0508 85.5 57.3479 84.3838 57.2426 83.6236H59.0896C59.2058 83.8837 59.4163 84.0184 59.599 84.0849C59.791 84.1515 59.9737 84.1515 60.0217 84.1515C60.627 84.1515 61.3206 83.7768 61.3206 82.8526V82.5352C61.1379 82.8433 60.6766 83.2954 59.839 83.2954C58.3867 83.2954 57.1451 82.1992 57.1451 80.4869C57.1451 78.6584 58.4533 77.6103 59.839 77.6103C60.435 77.6103 61.0218 77.8224 61.3299 78.2838V77.7837H62.9261V82.4779L62.9277 82.4794ZM58.7428 80.4404C58.7428 81.2873 59.359 81.806 60.0217 81.806C60.4165 81.806 60.7246 81.6713 60.9553 81.4406C61.1767 81.2099 61.3113 80.8925 61.3299 80.5178C61.3299 80.123 61.2138 79.767 60.994 79.5177C60.7819 79.2576 60.4552 79.1043 60.0325 79.1043C59.3497 79.1043 58.7428 79.6524 58.7428 80.4311V80.4404Z" fill="#0860FB"/>
<path d="M72.4316 81.0937C72.1436 82.306 71.0754 83.2968 69.6324 83.2968C68.0161 83.2968 66.7759 82.0273 66.7759 80.4404C66.7759 78.8534 67.9975 77.6025 69.5953 77.6025C71.0088 77.6025 72.1545 78.536 72.4239 79.8443H70.8075C70.6341 79.4789 70.3167 79.0934 69.6525 79.0934C69.2779 79.0748 68.9605 79.2188 68.7298 79.4681C68.5084 79.7189 68.383 80.0641 68.383 80.4496C68.383 81.2284 68.8924 81.8059 69.6525 81.8059C70.3167 81.8059 70.6341 81.4204 70.8075 81.0937H72.4331H72.4316Z" fill="#0860FB"/>
<path d="M73.1627 76.0047H74.7589V83.1235H73.1627V76.0047Z" fill="#0860FB"/>
<path d="M75.9154 76.0047H77.5116V77.217H75.9154V76.0047ZM75.9154 77.7852H77.5116V83.1235H75.9154V77.7852Z" fill="#0860FB"/>
<path d="M78.6666 77.7852H80.1575V78.3534C80.1575 78.3534 80.2535 78.1614 80.4842 77.9787C80.7149 77.7867 81.0896 77.604 81.6485 77.604C82.0138 77.604 82.4752 77.7 82.87 78.1134C82.9861 78.2295 83.0914 78.3735 83.1874 78.5562C83.2927 78.3921 83.4181 78.2295 83.5729 78.0948C83.8903 77.8069 84.3238 77.604 84.8812 77.604C85.2558 77.604 85.8534 77.6907 86.2854 78.1428C86.7855 78.6723 86.8629 79.0284 86.8629 80.2112V83.1266H85.2667V80.2887C85.2667 80.0673 85.2667 79.7793 85.1614 79.5378C85.0654 79.287 84.8626 79.1043 84.4492 79.1043C84.0064 79.1043 83.785 79.3071 83.6797 79.5471C83.5636 79.787 83.5636 80.0564 83.5636 80.2112V83.1266H81.9674V80.2205C81.9674 80.0766 81.9674 79.7979 81.8714 79.5564C81.7661 79.3055 81.5726 79.1043 81.1685 79.1043C80.7164 79.1043 80.495 79.3164 80.3789 79.5749C80.2628 79.8335 80.2628 80.123 80.2628 80.2871V83.125H78.6666V77.7867V77.7852Z" fill="#0860FB"/>
<path d="M93.5973 83.1234H92.0011V82.5459C91.7131 83.0661 91.0489 83.3061 90.4234 83.3061C88.7297 83.3061 87.7388 81.9793 87.7388 80.4496C87.7388 78.6986 88.9991 77.6025 90.4234 77.6025C91.2982 77.6025 91.789 78.0251 92.0011 78.3534V77.7852H93.5973V83.1234ZM89.335 80.4775C89.335 80.9683 89.7004 81.8152 90.6619 81.8152C91.2301 81.8152 91.5753 81.5458 91.7781 81.2191C91.9128 81.007 91.9794 80.7763 91.9995 80.5363C92.0181 80.2964 91.9701 80.0549 91.8648 79.8335C91.6914 79.4681 91.3261 79.0934 90.6526 79.0934C89.7391 79.0934 89.335 79.8629 89.335 80.4698V80.4791V80.4775Z" fill="#0860FB"/>
<path d="M95.0793 78.9974H94.2897V77.7852H95.0793V76.0047H96.6755V77.7852H97.445V78.9974H96.6755V83.125H95.0793V78.9974Z" fill="#0860FB"/>
<path d="M99.2546 81.0068C99.3211 81.575 99.8599 81.9497 100.485 81.9497C100.995 81.9497 101.264 81.7283 101.458 81.4496H103.093C102.833 82.0457 102.458 82.5086 102.006 82.8152C101.563 83.1326 101.033 83.2967 100.485 83.2967C98.9558 83.2967 97.6568 82.055 97.6568 80.4681C97.6568 78.9771 98.8303 77.6008 100.456 77.6008C101.273 77.6008 101.976 77.9181 102.476 78.4476C103.15 79.1691 103.351 80.0253 103.227 81.0068H99.2546ZM101.659 79.7946C101.62 79.5438 101.294 78.9477 100.465 78.9477C99.637 78.9477 99.3103 79.5438 99.2731 79.7946H101.659Z" fill="#0860FB"/>
<path d="M107.451 78.9974H106.662V77.7852H107.451V76.0047H109.047V77.7852H109.817V78.9974H109.047V83.125H107.451V78.9974Z" fill="#0860FB"/>
<path d="M111.627 81.007C111.693 81.5751 112.232 81.9498 112.858 81.9498C113.367 81.9498 113.636 81.7284 113.83 81.4497H115.465C115.205 82.0458 114.83 82.5087 114.378 82.8153C113.935 83.1327 113.406 83.2968 112.858 83.2968C111.328 83.2968 110.029 82.0551 110.029 80.4682C110.029 78.9772 111.203 77.6009 112.828 77.6009C113.646 77.6009 114.349 77.9182 114.849 78.4477C115.522 79.1692 115.723 80.0254 115.6 81.007H111.627ZM114.031 79.7947C113.992 79.5439 113.666 78.9478 112.837 78.9478C112.009 78.9478 111.682 79.5439 111.645 79.7947H114.031Z" fill="#0860FB"/>
<path d="M121.931 81.0937C121.643 82.306 120.574 83.2968 119.131 83.2968C117.515 83.2968 116.275 82.0273 116.275 80.4404C116.275 78.8534 117.496 77.6025 119.094 77.6025C120.508 77.6025 121.653 78.536 121.923 79.8443H120.307C120.133 79.4789 119.816 79.0934 119.152 79.0934C118.777 79.0748 118.459 79.2188 118.229 79.4681C118.007 79.7189 117.882 80.0641 117.882 80.4496C117.882 81.2284 118.391 81.8059 119.152 81.8059C119.816 81.8059 120.133 81.4204 120.307 81.0937H121.931Z" fill="#0860FB"/>
<path d="M122.662 76.0047H124.259V78.2744C124.547 77.7929 125.085 77.6009 125.654 77.6009C126.471 77.6009 126.953 77.8889 127.241 78.3611C127.529 78.8225 127.606 79.4573 127.606 80.1416V83.1235H126.01V80.2175C126.01 79.9186 125.971 79.64 125.846 79.4387C125.711 79.2359 125.499 79.1027 125.154 79.1027C124.711 79.1027 124.48 79.3055 124.375 79.5362C124.259 79.7669 124.259 80.027 124.259 80.1617V83.125H122.662V76.0063V76.0047Z" fill="#0860FB"/>
<path d="M128.743 77.7852H130.234V78.3534C130.416 78.0933 130.754 77.6025 131.706 77.6025C133.505 77.6025 133.688 79.064 133.688 79.7855V83.1234H132.092V80.2081C132.092 79.6213 131.966 79.1011 131.254 79.1011C130.464 79.1011 130.34 79.6693 130.34 80.2174V83.1234H128.744V77.7852H128.743Z" fill="#0860FB"/>
<path d="M134.572 80.4403C134.572 79.1414 135.505 77.6117 137.448 77.6117C139.391 77.6117 140.325 79.1414 140.325 80.4496C140.325 81.7579 139.391 83.2875 137.448 83.2875C135.505 83.2875 134.572 81.7579 134.572 80.4496V80.4403ZM136.168 80.4589C136.168 81.2284 136.755 81.7966 137.447 81.7966C138.139 81.7966 138.726 81.2284 138.726 80.4496C138.726 79.6709 138.139 79.1027 137.447 79.1027C136.755 79.1027 136.168 79.6709 136.168 80.4496V80.4589Z" fill="#0860FB"/>
<path d="M141.229 76.0048H142.825V83.1235H141.229V76.0048Z" fill="#0860FB"/>
<path d="M143.731 80.4403C143.731 79.1414 144.665 77.6117 146.608 77.6117C148.551 77.6117 149.484 79.1414 149.484 80.4496C149.484 81.7579 148.551 83.2875 146.608 83.2875C144.665 83.2875 143.731 81.7579 143.731 80.4496V80.4403ZM145.327 80.4589C145.327 81.2284 145.914 81.7966 146.606 81.7966C147.298 81.7966 147.885 81.2284 147.885 80.4496C147.885 79.6709 147.298 79.1027 146.606 79.1027C145.914 79.1027 145.327 79.6709 145.327 80.4496V80.4589Z" fill="#0860FB"/>
<path d="M155.92 82.4793C155.92 83.2782 155.863 83.7876 155.602 84.2397C155.189 84.9131 154.217 85.4999 152.899 85.4999C151.043 85.4999 150.34 84.3837 150.235 83.6235H152.082C152.196 83.8836 152.408 84.0183 152.591 84.0848C152.783 84.1514 152.966 84.1514 153.014 84.1514C153.619 84.1514 154.313 83.7767 154.313 82.8525V82.5351C154.13 82.8432 153.669 83.2953 152.831 83.2953C151.379 83.2953 150.137 82.1991 150.137 80.4868C150.137 78.6583 151.445 77.6102 152.831 77.6102C153.427 77.6102 154.014 77.8223 154.322 78.2837V77.7836H155.918V82.4778L155.92 82.4793ZM151.735 80.4403C151.735 81.2872 152.351 81.8059 153.014 81.8059C153.409 81.8059 153.717 81.6712 153.947 81.4405C154.169 81.2098 154.303 80.8924 154.322 80.5177C154.322 80.1229 154.206 79.7669 153.986 79.5176C153.774 79.2575 153.447 79.1042 153.025 79.1042C152.342 79.1042 151.735 79.6523 151.735 80.431V80.4403Z" fill="#0860FB"/>
<path d="M158.47 82.854L156.488 77.7851H158.191L159.278 80.8831L160.298 77.7851H161.992L159.318 84.9038H157.624L158.471 82.8555L158.47 82.854Z" fill="#0860FB"/>
</g>
<defs>
<clipPath id="clip0_0_3">
<rect width="204" height="86" fill="white"/>
</clipPath>
</defs>
</svg>
