<?xml version="1.0" encoding="utf-8"?>
<!-- Svg Vector Icons : http://www.onlinewebfonts.com/icon -->
<!DOCTYPE svg PUBLIC "-//W3C//DTD SVG 1.1//EN" "http://www.w3.org/Graphics/SVG/1.1/DTD/svg11.dtd">
<svg version="1.1" xmlns="http://www.w3.org/2000/svg" xmlns:xlink="http://www.w3.org/1999/xlink" x="0px" y="0px" viewBox="0 0 1000 1000" enable-background="new 0 0 1000 1000" xml:space="preserve">
<metadata> Svg Vector Icons : http://www.onlinewebfonts.com/icon </metadata>
<g><path d="M749.1,48.7c-8.3-22.2-26.3-35.9-50.8-38.6l-0.9-0.1H514.9h-15.3h-197l-0.9,0.1c-24.5,2.7-42.6,16.4-50.8,38.6c-5.2,13.9-4.9,26.9-4.7,30.5v842.1c-0.1,19,10.6,57.6,52.1,68.2l2,0.5H500h14.6h185.1l2-0.5c41.5-10.6,52.2-49.2,52.1-68.2V79.2C754,75.6,754.3,62.6,749.1,48.7z M720.2,77.4l0,0.5v843.5l0-0.1l0,0.2c0,3.2-1.2,27.7-24.9,34.9H514.6H500H304.7c-23.9-7.3-24.9-32-24.9-35V78.7l0-0.5l-0.1-0.7c0-0.8-0.4-9.4,2.9-17.7c3.8-9.5,10.7-14.6,21.8-16h195.1h15.3h180.5c11.1,1.4,18,6.5,21.8,16C720.6,68,720.3,76.5,720.2,77.4z"/><path d="M311,807.7h378V150.8H311V807.7z M344.7,184.5h310.7v589.6H344.7V184.5z"/><path d="M449.3,95h101.4v22.5H449.3V95z"/><path d="M500,834.6c-26.1,0-47.3,21.2-47.3,47.3c0,26.1,21.2,47.3,47.3,47.3s47.3-21.2,47.3-47.3C547.3,855.8,526.1,834.6,500,834.6z M500,906.7c-13.7,0-24.8-11.1-24.8-24.8c0-13.7,11.1-24.8,24.8-24.8c13.7,0,24.8,11.1,24.8,24.8C524.8,895.6,513.7,906.7,500,906.7z"/></g>
</svg>